<svg xmlns="http://www.w3.org/2000/svg" viewBox="0 0 118.828 25"><defs><style>.a{fill:#9d9d9d;}</style></defs><g transform="translate(0 4.876)"><path class="a" d="M120.086,33.668v.169h-6.37a12.222,12.222,0,0,1-3.213-.395,8.318,8.318,0,0,1-2.818-1.494,8.473,8.473,0,0,1-2.311-2.762A7.035,7.035,0,0,1,104.5,25.8a7.451,7.451,0,0,1,1.1-3.777,8.627,8.627,0,0,1,3.157-3.044,9.058,9.058,0,0,1,4.651-1.184,13.151,13.151,0,0,1,4.932,1.043l.648,1.832h-.169a6.525,6.525,0,0,0-2.255-1.747,7.416,7.416,0,0,0-3.185-.676,6.292,6.292,0,0,0-5.017,2.311,8.532,8.532,0,0,0-1.945,5.722,9.922,9.922,0,0,0,.31,2.537,6.589,6.589,0,0,0,1.212,2.2,6.068,6.068,0,0,0,1.888,1.578,8.018,8.018,0,0,0,2.283.7,9.463,9.463,0,0,0,2,.169l.846-.028a4.9,4.9,0,0,0,1.8-.254c.225-.141.366-.507.366-1.1v-2.4a1.256,1.256,0,0,0-.282-.93,1.084,1.084,0,0,0-.817-.2V28.4h4.087v.169a1.312,1.312,0,0,0-.93.254,1.732,1.732,0,0,0-.225,1.015v2.48a2.06,2.06,0,0,0,.2,1.071.775.775,0,0,0,.733.338h.2Z" transform="translate(-75.047 -17.659)"/><path class="a" d="M56.9,18.343l.592,1.663h-.169a7.4,7.4,0,0,0-5.411-2.283,7.25,7.25,0,0,0-5.214,1.917,6.2,6.2,0,0,0-2,4.651,10.874,10.874,0,0,0,.874,3.861,8.36,8.36,0,0,0,2.79,3.608,7.629,7.629,0,0,0,4.622,1.409,11.475,11.475,0,0,0,3.495-.564,5.661,5.661,0,0,0,2.537-1.55l.141.056-1.1,1.691c-1.776.395-2.959.62-3.467.676a14.574,14.574,0,0,1-2.142.113c-3.3,0-5.665-.761-7.1-2.311a7.707,7.707,0,0,1-2.142-5.5,8.629,8.629,0,0,1,1.1-4.171,8.093,8.093,0,0,1,3.157-3.157A9.655,9.655,0,0,1,52.191,17.3a11.064,11.064,0,0,1,2.311.225,13.82,13.82,0,0,1,1.607.507l.7.254C56.9,18.315,56.9,18.315,56.9,18.343Z" transform="translate(-31.024 -17.3)"/><path class="a" d="M0,18.269V18.1H4.51A8.277,8.277,0,0,1,8,18.636,3.748,3.748,0,0,1,9.583,19.96a3.912,3.912,0,0,1,.507,2.114A3.491,3.491,0,0,1,8.709,25.09a6.033,6.033,0,0,1-3.749.958v-.169a3.36,3.36,0,0,0,2.452-.93,3.249,3.249,0,0,0,.93-2.424,4.539,4.539,0,0,0-.451-2.086,3.351,3.351,0,0,0-1.268-1.381,5.267,5.267,0,0,0-2.508-.479H2.988V32.164q0,1.141.254,1.353a1.628,1.628,0,0,0,.986.225v.169H0v-.169c.733,0,1.127-.338,1.127-1.015V19.678a1.669,1.669,0,0,0-.225-1.1A1.078,1.078,0,0,0,0,18.269Z" transform="translate(0 -17.875)"/></g><rect class="a" width="0.056" height="25" transform="translate(50.085)"/><path class="a" d="M201.233,24.561,194.3,35.046h2.2l1.635-2.508h4.679l.536,2.508h2l-2.368-10.485Zm1.268,6.285h-3.3l2.508-3.89Zm9.639-3.41-.479,1.663-.254-.141a2.468,2.468,0,0,0-1.212-.338,2.8,2.8,0,0,0-2.621,3.072c0,.874.31,1.917,1.776,1.917a4.481,4.481,0,0,0,1.409-.31l.395-.169-.366,1.832-.141.028a5.892,5.892,0,0,1-1.494.169c-2.227,0-3.551-1.24-3.551-3.3,0-2.847,1.776-4.848,4.312-4.848a5.63,5.63,0,0,1,2,.31Zm3.692-.366a7.871,7.871,0,0,0-2.142.395l-.141.056-.366,1.973.451-.254a4.474,4.474,0,0,1,2.17-.592c.986,0,1.466.395,1.466,1.212a.621.621,0,0,1-.028.225H217.1c-.225,0-.451-.028-.648-.028-3.129,0-4.651.958-4.651,2.9a2.351,2.351,0,0,0,2.621,2.255,3.065,3.065,0,0,0,2.029-.761l-.113.592h1.776l.028-.2c.141-.986.366-2.057.592-3.072.056-.31.141-.62.2-.9a6.4,6.4,0,0,0,.141-1.184C219.018,28,217.863,27.069,215.833,27.069Zm.254,4.453h.761a2.423,2.423,0,0,1-2.142,2.114c-.451,0-.986-.2-.986-.761C213.719,31.664,215.382,31.523,216.087,31.523ZM226.938,23.8l-.9,4.284a2.842,2.842,0,0,0-2.311-1.015c-2.678,0-4.087,2.424-4.087,4.82a2.991,2.991,0,0,0,2.988,3.3,3.2,3.2,0,0,0,2.114-.62c0,.056-.028.113-.028.169l-.056.282h1.8l.028-.2a22.753,22.753,0,0,1,.423-2.4l1.917-8.6h-1.888Zm-1.522,6.6c0,1.3-.733,3.241-2.283,3.241a1.618,1.618,0,0,1-1.578-1.832c0-1.3.789-3.157,2.227-3.157A1.588,1.588,0,0,1,225.416,30.4Zm6.877-3.326a4.422,4.422,0,0,0-4.312,4.594c0,2.311,1.268,3.523,3.664,3.523a8.776,8.776,0,0,0,2.255-.31l.141-.028.31-1.8-.395.169a5.32,5.32,0,0,1-2,.423c-1.437,0-2.057-.507-2.057-1.747v-.225h5.242l.028-.2a7.653,7.653,0,0,0,.141-1.381A2.758,2.758,0,0,0,232.293,27.069Zm-.169,1.578a1.281,1.281,0,0,1,1.3,1.55h-3.269A2.313,2.313,0,0,1,232.124,28.648Zm15.389.564a8.062,8.062,0,0,1-.225,1.578l-.9,4.228h-1.86l1.043-4.9a3.142,3.142,0,0,0,.085-.648.794.794,0,0,0-.846-.846c-1.268,0-1.973,1.578-2.17,2.537l-.874,3.861H239.9l1.043-4.9a3.144,3.144,0,0,0,.085-.648.794.794,0,0,0-.846-.846c-1.268,0-1.973,1.578-2.17,2.537l-.874,3.861h-1.86l1.437-6.764c.028-.141.056-.282.085-.451.028-.113.028-.225.056-.366l.028-.2h1.776l-.085.507a3.094,3.094,0,0,1,2.029-.676,2.239,2.239,0,0,1,2.057,1.071,3.368,3.368,0,0,1,2.565-1.071A2.143,2.143,0,0,1,247.513,29.211Zm3.777-1.973L249.6,35.018h-1.832l1.691-7.779Zm.366-1.156h-2.029l.423-2h2.029Zm3.467.986a7.871,7.871,0,0,0-2.142.395l-.141.056-.366,1.973.451-.254a4.474,4.474,0,0,1,2.17-.592c.986,0,1.466.395,1.466,1.212a.62.62,0,0,1-.028.225h-.141c-.225,0-.451-.028-.648-.028-3.129,0-4.651.958-4.651,2.9a2.351,2.351,0,0,0,2.621,2.255,3.065,3.065,0,0,0,2.029-.761l-.113.592h1.776l.028-.2c.141-.986.366-2.057.592-3.072.056-.31.141-.62.2-.9a6.4,6.4,0,0,0,.141-1.184C258.308,28,257.152,27.069,255.123,27.069Zm.254,4.453h.761A2.423,2.423,0,0,1,254,33.637c-.451,0-.987-.2-.987-.761C253.009,31.664,254.672,31.523,255.377,31.523Z" transform="translate(-139.537 -17.092)"/><script xmlns=""/></svg>